<?xml version="1.0" encoding="UTF-8" standalone="no"?><!-- Generator: Gravit.io -->
<svg xmlns="http://www.w3.org/2000/svg" xmlns:xlink="http://www.w3.org/1999/xlink" style="isolation:isolate"
     viewBox="0 0 512 512" width="512pt" height="512pt">
    <defs>
        <clipPath id="_clipPath_JjyA6PgIXay208OWHijZKS2VBZP0nDbb">
            <rect width="512" height="512"/>
        </clipPath>
    </defs>
    <g clip-path="url(#_clipPath_JjyA6PgIXay208OWHijZKS2VBZP0nDbb)">
        <g>
            <path
                d=" M 138.823 46.622 M 313.757 448.514 Q 313.757 448.514 271.738 448.514 C 267.737 448.514 264.45 445.227 264.45 441.225 L 264.45 247.139 C 263.878 243.566 266.736 240.422 268.451 238.564 L 442.1 46.622 L 69.901 46.622 L 245.727 240.85 C 246.156 241.279 246.584 241.851 246.87 242.423 C 247.585 243.995 247.585 243.995 247.585 254.142 L 247.585 432.792 C 247.585 443.226 247.585 443.226 246.442 445.084 C 245.155 447.227 242.726 448.514 240.296 448.514 L 198.277 448.514 C 193.811 448.774 190.322 452.472 190.322 456.946 C 190.322 461.42 193.811 465.118 198.277 465.378 L 313.614 465.378 C 318.188 465.378 322.046 461.662 322.046 456.946 C 321.998 454.619 321.759 448.874 313.757 448.514 Q 313.757 448.514 313.757 448.514 Z "
                fill="rgb(240,78,96)"/>
            <path
                d=" M 218.628 46.622 L 243.665 71.665 C 246.13 70.429 248.858 69.808 251.616 69.857 C 262.005 69.857 269.95 77.777 269.95 88.19 C 269.95 91.246 269.326 93.678 268.116 96.11 L 292.561 120.555 C 295.018 119.339 297.45 118.746 300.506 118.746 C 310.895 118.746 318.839 126.666 318.839 137.08 C 318.839 147.463 310.895 155.414 300.506 155.414 C 290.117 155.414 282.172 147.463 282.172 137.08 C 282.172 134.024 282.795 131.562 284.005 129.129 L 259.561 104.684 C 258.949 104.684 258.351 105.277 257.727 105.277 L 257.727 168.852 C 265.061 171.284 269.95 178.019 269.95 185.964 C 269.95 196.353 262.005 204.297 251.616 204.297 C 241.227 204.297 233.282 196.353 233.282 185.964 C 233.282 178.019 238.171 171.284 245.505 168.852 L 245.505 104.678 C 238.171 102.215 233.282 95.511 233.282 87.561 C 233.282 84.505 233.906 82.073 235.116 79.616 L 201.901 46.622 L 218.628 46.622 Z "
                fill="rgb(255,255,255)"/>
        </g>
    </g>
</svg>
